# xmcd CD database file
#
# Track frame offsets:
#	150
#	20790
#	38825
#	57685
#	79902
#	94377
#	109380
#	126895
#	144877
#	165252
#	182937
#	194510
#	214505
#	232997
#	249087
#	269322
#
# Disc length: 3902 seconds
#
# Revision: 0
# Processed by: cddbd v1.5.1PL0 Copyright (c) Steve Scherf et al.
# Submitted via: CDex 1.51
#
DISCID=e20f3c10
DTITLE=Various Artist - J-POP ANTHOLOGY 12
DYEAR=1900
DGENRE=J-Pop
TTITLE0=SUMMER SUSPICION
TTITLE1=ふたりの夏物語-NEVER ENDING SUMMER-
TTITLE2=君は1000%
TTITLE3=愛は心の仕事です
TTITLE4=思い出は美しすぎて
TTITLE5=みずいろの雨
TTITLE6=おんなになあれ
TTITLE7=ジプシー
TTITLE8=夏の日の1993
TTITLE9=サヨナラ
TTITLE10=キッスは目にして
TTITLE11=前略、道の上より
TTITLE12=風の谷のナウシカ
TTITLE13=ボヘミアン
TTITLE14=輝きながら…
TTITLE15=壊れかけのRadio
EXTD=
EXTT0=
EXTT1=
EXTT2=
EXTT3=
EXTT4=
EXTT5=
EXTT6=
EXTT7=
EXTT8=
EXTT9=
EXTT10=
EXTT11=
EXTT12=
EXTT13=
EXTT14=
EXTT15=
PLAYORDER=
